PathFileType	4	(X/Y/Z)	/Users/niels/Desktop/University/Third Semester/Perception and Action/Exam/Gymnastics Motion Tracking/Code for Gym Tracking/Analyzed Data/Webcam_Backflip/id3_3_baseline_Sports2D/id3_3_baseline_Sports2D_px_person00.trc
DataRate	CameraRate	NumFrames	NumMarkers	Units	OrigDataRate	OrigDataStartFrame	OrigNumFrames
29.81132075471698	29.81132075471698	7	22	m	29.81132075471698	119	159
Frame#	Time	Hip			RHip			RKnee			RAnkle			RBigToe			RSmallToe			RHeel			LHip			LKnee			LAnkle			LBigToe			LSmallToe			LHeel			Neck			Head			Nose			RShoulder			RElbow			RWrist			LShoulder			LElbow			LWrist		
		X1	Y1	Z1	X2	Y2	Z2	X3	Y3	Z3	X4	Y4	Z4	X5	Y5	Z5	X6	Y6	Z6	X7	Y7	Z7	X8	Y8	Z8	X9	Y9	Z9	X10	Y10	Z10	X11	Y11	Z11	X12	Y12	Z12	X13	Y13	Z13	X14	Y14	Z14	X15	Y15	Z15	X16	Y16	Z16	X17	Y17	Z17	X18	Y18	Z18	X19	Y19	Z19	X20	Y20	Z20	X21	Y21	Z21	X22	Y22	Z22
119	3.991772151898734	1.051246432119109	-0.5725609550913415	0.0	1.0540069055052856	-0.5716587626374771	0.0	1.056619254383869	-0.6766586266250173	0.0	1.0173245082203808	-0.7875467332584541	0.0	1.0531996752294739	-0.8088036359429106	0.0	1.0426038302179261	-0.8115670281630245	0.0	1.006792066087214	-0.8036848437226332	0.0	1.0459477657656462	-0.5721397889264116	0.0	1.0443485856102532	-0.6757607107039351	0.0	1.0139573111947144	-0.7819967271899378	0.0	1.053742571738967	-0.8032764274769639	0.0	1.0475285576267415	-0.8021780320886169	0.0	1.0008653156194738	-0.7968454704843356	0.0	1.0544323397872055	-0.40820702915422513	0.0	1.0674349229123543	-0.33974312141305774	0.0	1.085773630267396	-0.37245037810588183	0.0	1.0477446154607757	-0.4315921555614081	0.0	1.030302147925819	-0.5094811906614448	0.0	1.041189809427654	-0.5786892174254643	0.0	1.0449848605338057	-0.4305437187649616	0.0	1.0302468043094495	-0.5039962247257569	0.0	1.0431086632852147	-0.5669869388616255	0.0
120	4.025316455696203	1.054026063439403	-0.5622913329528473	0.0	1.0555157149134582	-0.5610881581735713	0.0	1.0579538132695367	-0.667037566515047	0.0	1.0182259178649187	-0.7773997902721849	0.0	1.0535735538751745	-0.800110237822531	0.0	1.0429927428117376	-0.8026137839139176	0.0	1.0078461796021716	-0.79405484138723	0.0	1.0498660425761481	-0.5613891134399068	0.0	1.0460602418305598	-0.6661142955488345	0.0	1.0148246870459858	-0.7719988296945162	0.0	1.0543576586478198	-0.7952679349489586	0.0	1.0476513754570012	-0.7936667770750458	0.0	1.001270540857245	-0.7872916654759212	0.0	1.0549787860167466	-0.3992820158079101	0.0	1.0686517768328903	-0.3301951452578861	0.0	1.086625930255211	-0.3625377909018077	0.0	1.0474930801449625	-0.4223149387735604	0.0	1.0240237925782236	-0.49805943177167966	0.0	1.0270430320248967	-0.5700419495394377	0.0	1.0471251017950554	-0.42124740447723935	0.0	1.0304537422834648	-0.4927375578025745	0.0	1.033704081240615	-0.5572287977165279	0.0
121	4.058860759493671	1.0562792786525725	-0.5516995069161333	0.0	1.0565747992769532	-0.5501799568120028	0.0	1.0584356799629042	-0.6578826444480714	0.0	1.0190545192876739	-0.7685808143641915	0.0	1.0540757152673765	-0.7927975299513841	0.0	1.0435182206706737	-0.795061361703492	0.0	1.0087484370921307	-0.7858687407396866	0.0	1.0539080168388115	-0.5503245893089581	0.0	1.0478273806267524	-0.6567780375454899	0.0	1.0159096885793852	-0.7632969445609765	0.0	1.0551174046645604	-0.7882889445618647	0.0	1.0476756059779746	-0.7862438473766312	0.0	1.0017523972843967	-0.7791326982109071	0.0	1.0556626879509816	-0.3910500347170711	0.0	1.069869290708251	-0.3209658429773284	0.0	1.087566344153333	-0.3532279437687643	0.0	1.0476776253299513	-0.41332887098654414	0.0	1.0181459277063833	-0.4864563494817907	0.0	1.0165514005012521	-0.5591405561643765	0.0	1.0494871942753294	-0.41225294791392625	0.0	1.029878511639273	-0.48128803138794235	0.0	1.0258351509613386	-0.5452823140197981	0.0
122	4.092405063291139	1.0577891691010524	-0.5418907312484817	0.0	1.0572735260188486	-0.5401588563712447	0.0	1.0582415901579372	-0.64995766473791	0.0	1.0198188507574073	-0.7615871028853037	0.0	1.0547227121295604	-0.7872683997858783	0.0	1.0442132322639732	-0.7893293696809701	0.0	1.0094981777694516	-0.7795851485736406	0.0	1.057278610419088	-0.5402015095272639	0.0	1.0491897484243007	-0.648496556502431	0.0	1.0170128619044716	-0.756242981658325	0.0	1.0557950711210762	-0.7825420102242778	0.0	1.0476544722923375	-0.7801567182290321	0.0	1.0023038970879898	-0.7726913455838058	0.0	1.0564420946338615	-0.3839508951059089	0.0	1.0709106128532446	-0.31286632873121595	0.0	1.0885235850611537	-0.34510398960282207	0.0	1.0483509895895513	-0.40525987401701746	0.0	1.0136309661025589	-0.4758606263134747	0.0	1.0099596628614707	-0.5481124519039111	0.0	1.0516583874083447	-0.40427914695027667	0.0	1.0287969367295322	-0.4708513073971917	0.0	1.0201524829282733	-0.533340686046464	0.0
123	4.125949367088608	1.0585394633063818	-0.5339590554559778	0.0	1.0577554597930816	-0.5321581602724986	0.0	1.0575721362418156	-0.6438446395744682	0.0	1.020554946957909	-0.7566754101492772	0.0	1.0555188532146078	-0.7836520254150902	0.0	1.045049585629978	-0.7855728259463014	0.0	1.010184794872192	-0.7753006214567094	0.0	1.059282023406183	-0.5321534725789901	0.0	1.0497021263612207	-0.6419225766735608	0.0	1.0179394072500474	-0.750982376767698	0.0	1.0561471540421705	-0.778199351629104	0.0	1.0475561525061337	-0.7755663114399374	0.0	1.0028710659584545	-0.7680602875340298	0.0	1.0572874619950674	-0.3783223009318481	0.0	1.0716307222711252	-0.3065779876193623	0.0	1.0894637264939564	-0.3387194176264027	0.0	1.0494333544978183	-0.39865000555099345	0.0	1.01113076678643	-0.4672955980673909	0.0	1.0070621615713689	-0.538687012366533	0.0	1.053401309549428	-0.397944082098479	0.0	1.0279053868039272	-0.4625230148913507	0.0	1.0177892809175269	-0.5233660159430207	0.0
124	4.159493670886076	1.0585590726573442	-0.5286770369043803	0.0	1.0581028957309122	-0.5269508622374727	0.0	1.0565431707699822	-0.6399329663309611	0.0	1.0212844310646834	-0.7539714277385202	0.0	1.0564677689287365	-0.7819204640595229	0.0	1.045977981463201	-0.7838084700866667	0.0	1.0109288307784392	-0.7729813214381743	0.0	1.0594118565007449	-0.5269414266221574	0.0	1.049034561256979	-0.6375242449256119	0.0	1.01852124570009	-0.7476110196141197	0.0	1.0560128724872626	-0.7754037148521113	0.0	1.0472779403376393	-0.7725644169513733	0.0	1.003373159441642	-0.7652327347189688	0.0	1.0581975859456838	-0.3744192950016659	0.0	1.0719796082700943	-0.30253377212455085	0.0	1.0903426127977551	-0.3344830402411087	0.0	1.0507618781413006	-0.39391398002169137	0.0	1.0108444583424774	-0.46147657658484953	0.0	1.007478091405012	-0.5320331368623779	0.0	1.0546069675214103	-0.3936604218135417	0.0	1.0278670026119467	-0.4570581823568888	0.0	1.0196518344452161	-0.5167349232513198	0.0
125	4.193037974683544	1.057892169966616	-0.5263963721894168	0.0	1.0583098389828975	-0.5248854107396229	0.0	1.0551786537140435	-0.6384020926659444	0.0	1.021968565894416	-0.7535044365961904	0.0	1.0575254721156544	-0.782009114879433	0.0	1.0469306112016434	-0.7840123401292807	0.0	1.0117544003144736	-0.7726111130825909	0.0	1.057549601523364	-0.5248988453740376	0.0	1.047077628702986	-0.6355201294203187	0.0	1.0186436726537005	-0.746213772010161	0.0	1.055298494519965	-0.7742493609668596	0.0	1.0466712494170223	-0.7712078944224919	0.0	1.0037142638989822	-0.7641650565445712	0.0	1.0591653882460155	-0.3724130905078019	0.0	1.0719736422541675	-0.30088577292499463	0.0	1.0910898505338569	-0.3325911592924887	0.0	1.0521625903532914	-0.39132522190115887	0.0	1.0125981239042532	-0.458710409944946	0.0	1.0107970414070568	-0.528704395258947	0.0	1.0552296719304548	-0.3916201874536702	0.0	1.029040396292264	-0.4547571105476341	0.0	1.0255175649773165	-0.5140511119571223	0.0
